<?xml version="1.0" encoding="UTF-8" standalone="no"?>
<!DOCTYPE svg PUBLIC "-//W3C//DTD SVG 1.1//EN"
 "http://www.w3.org/Graphics/SVG/1.1/DTD/svg11.dtd">
<!-- Generated by graphviz version 16.0.0 (20260814.1018)
 -->
<!-- Pages: 1 -->
<svg width="2213pt" height="356pt"
 viewBox="0.00 0.00 2213.00 356.00" xmlns="http://www.w3.org/2000/svg" xmlns:xlink="http://www.w3.org/1999/xlink">
<g id="graph0" class="graph" transform="scale(1 1) rotate(0) translate(4 352.25)">
<polygon fill="#ffffff" stroke="none" points="-4,4 -4,-352.25 2208.5,-352.25 2208.5,4 -4,4"/>
<!-- CORD -->
<g id="node1" class="node">
<title>CORD</title>
<polygon fill="#ffffff" stroke="black" points="209.75,-257.38 0,-257.38 0,-114.88 209.75,-114.88 209.75,-257.38"/>
<polygon fill="none" stroke="black" points="0,-233.62 0,-257.38 209.75,-257.38 209.75,-233.62 0,-233.62"/>
<text xml:space="preserve" text-anchor="start" x="84.62" y="-240.62" font-family="arial" font-size="14.00">CORD</text>
<polygon fill="none" stroke="black" points="0,-209.88 0,-233.62 168.25,-233.62 168.25,-209.88 0,-209.88"/>
<text xml:space="preserve" text-anchor="start" x="5.75" y="-216.88" font-family="arial" font-size="14.00">Mains cord (from the wall)</text>
<polygon fill="none" stroke="black" points="168.25,-209.88 168.25,-233.62 209.75,-233.62 209.75,-209.88 168.25,-209.88"/>
<text xml:space="preserve" text-anchor="start" x="174" y="-216.88" font-family="arial" font-size="14.00">3&#45;pin</text>
<polygon fill="none" stroke="black" points="0,-186.12 0,-209.88 150.25,-209.88 150.25,-186.12 0,-186.12"/>
<text xml:space="preserve" text-anchor="start" x="51.12" y="-193.12" font-family="arial" font-size="14.00">L brown</text>
<polygon fill="none" stroke="black" points="150.25,-186.12 150.25,-209.88 209.75,-209.88 209.75,-186.12 150.25,-186.12"/>
<text xml:space="preserve" text-anchor="start" x="176.25" y="-193.12" font-family="arial" font-size="14.00">1</text>
<polygon fill="none" stroke="black" points="0,-162.38 0,-186.12 150.25,-186.12 150.25,-162.38 0,-162.38"/>
<text xml:space="preserve" text-anchor="start" x="55.62" y="-169.38" font-family="arial" font-size="14.00">N blue</text>
<polygon fill="none" stroke="black" points="150.25,-162.38 150.25,-186.12 209.75,-186.12 209.75,-162.38 150.25,-162.38"/>
<text xml:space="preserve" text-anchor="start" x="176.25" y="-169.38" font-family="arial" font-size="14.00">2</text>
<polygon fill="none" stroke="black" points="0,-138.62 0,-162.38 150.25,-162.38 150.25,-138.62 0,-138.62"/>
<text xml:space="preserve" text-anchor="start" x="26" y="-145.62" font-family="arial" font-size="14.00">PE green&#45;yellow</text>
<polygon fill="none" stroke="black" points="150.25,-138.62 150.25,-162.38 209.75,-162.38 209.75,-138.62 150.25,-138.62"/>
<text xml:space="preserve" text-anchor="start" x="176.25" y="-145.62" font-family="arial" font-size="14.00">3</text>
<polygon fill="none" stroke="black" points="0,-114.88 0,-138.62 209.75,-138.62 209.75,-114.88 0,-114.88"/>
<text xml:space="preserve" text-anchor="start" x="4" y="-121.88" font-family="arial" font-size="14.00">earth stays on its stud, untouched</text>
</g>
<!-- cord -->
<g id="node6" class="node">
<title>cord</title>
<polygon fill="#ffffff" stroke="black" points="674,-288.25 353.75,-288.25 353.75,-126 674,-126 674,-288.25"/>
<polygon fill="none" stroke="black" points="353.75,-264.5 353.75,-288.25 674,-288.25 674,-264.5 353.75,-264.5"/>
<text xml:space="preserve" text-anchor="start" x="500.75" y="-271.5" font-family="arial" font-size="14.00">cord</text>
<polygon fill="none" stroke="black" points="353.75,-240.75 353.75,-264.5 674,-264.5 674,-240.75 353.75,-240.75"/>
<text xml:space="preserve" text-anchor="start" x="506.75" y="-247.75" font-family="arial" font-size="14.00">2x</text>
<text xml:space="preserve" text-anchor="start" x="405.62" y="-226" font-family="arial" font-size="14.00"> </text>
<text xml:space="preserve" text-anchor="start" x="355.75" y="-206.25" font-family="arial" font-size="14.00">CORD:1:L brown</text>
<text xml:space="preserve" text-anchor="start" x="463.25" y="-206.25" font-family="arial" font-size="14.00"> &#160;&#160;&#160;&#160;1:BN &#160;&#160;&#160;</text>
<text xml:space="preserve" text-anchor="start" x="531" y="-206.25" font-family="arial" font-size="14.00">WAGO_L:1:cord brown</text>
<polygon fill="#000000" stroke="none" points="353.75,-199.25 353.75,-201.25 674,-201.25 674,-199.25 353.75,-199.25"/>
<polygon fill="#895956" stroke="none" points="353.75,-197.25 353.75,-199.25 674,-199.25 674,-197.25 353.75,-197.25"/>
<polygon fill="#000000" stroke="none" points="353.75,-195.25 353.75,-197.25 674,-197.25 674,-195.25 353.75,-195.25"/>
<text xml:space="preserve" text-anchor="start" x="360.25" y="-180.5" font-family="arial" font-size="14.00">CORD:2:N blue</text>
<text xml:space="preserve" text-anchor="start" x="463.25" y="-180.5" font-family="arial" font-size="14.00"> &#160;&#160;&#160;&#160;2:BU &#160;&#160;&#160;</text>
<text xml:space="preserve" text-anchor="start" x="535.5" y="-180.5" font-family="arial" font-size="14.00">WAGO_N:1:cord blue</text>
<polygon fill="#000000" stroke="none" points="353.75,-173.5 353.75,-175.5 674,-175.5 674,-173.5 353.75,-173.5"/>
<polygon fill="#0066ff" stroke="none" points="353.75,-171.5 353.75,-173.5 674,-173.5 674,-171.5 353.75,-171.5"/>
<polygon fill="#000000" stroke="none" points="353.75,-169.5 353.75,-171.5 674,-171.5 674,-169.5 353.75,-169.5"/>
<text xml:space="preserve" text-anchor="start" x="405.62" y="-154.75" font-family="arial" font-size="14.00"> </text>
<polygon fill="none" stroke="black" points="353.75,-126 353.75,-149.75 674,-149.75 674,-126 353.75,-126"/>
<text xml:space="preserve" text-anchor="start" x="408.12" y="-133" font-family="arial" font-size="14.00">existing, bullets cut off, strip 11 mm</text>
</g>
<!-- CORD&#45;&#45;cord -->
<g id="edge1" class="edge">
<title>CORD:e&#45;&#45;cord:w</title>
<path fill="none" stroke="#000000" stroke-width="2" d="M209.75,-196C273.78,-196 289.78,-196.25 353.75,-196.25"/>
<path fill="none" stroke="#895956" stroke-width="2" d="M209.75,-198C273.75,-198 289.75,-198.25 353.75,-198.25"/>
<path fill="none" stroke="#000000" stroke-width="2" d="M209.75,-200C273.72,-200 289.72,-200.25 353.75,-200.25"/>
</g>
<!-- CORD&#45;&#45;cord -->
<g id="edge3" class="edge">
<title>CORD:e&#45;&#45;cord:w</title>
<path fill="none" stroke="#000000" stroke-width="2" d="M209.75,-172.25C273.54,-172.26 289.53,-170.51 353.75,-170.5"/>
<path fill="none" stroke="#0066ff" stroke-width="2" d="M209.75,-174.25C273.75,-174.25 289.75,-172.5 353.75,-172.5"/>
<path fill="none" stroke="#000000" stroke-width="2" d="M209.75,-176.25C273.97,-176.24 289.96,-174.49 353.75,-174.5"/>
</g>
<!-- WAGO_L -->
<g id="node2" class="node">
<title>WAGO_L</title>
<polygon fill="#ffffff" stroke="black" points="1136,-317.5 818,-317.5 818,-198.75 1136,-198.75 1136,-317.5"/>
<polygon fill="none" stroke="black" points="818,-293.75 818,-317.5 1136,-317.5 1136,-293.75 818,-293.75"/>
<text xml:space="preserve" text-anchor="start" x="947.38" y="-300.75" font-family="arial" font-size="14.00">WAGO_L</text>
<polygon fill="none" stroke="black" points="818,-270 818,-293.75 923.5,-293.75 923.5,-270 818,-270"/>
<text xml:space="preserve" text-anchor="start" x="822" y="-277" font-family="arial" font-size="14.00">WAGO 221&#45;413</text>
<polygon fill="none" stroke="black" points="923.5,-270 923.5,-293.75 1098,-293.75 1098,-270 923.5,-270"/>
<text xml:space="preserve" text-anchor="start" x="927.5" y="-277" font-family="arial" font-size="14.00">replaces the BROWN bullet</text>
<polygon fill="none" stroke="black" points="1098,-270 1098,-293.75 1136,-293.75 1136,-270 1098,-270"/>
<text xml:space="preserve" text-anchor="start" x="1102" y="-277" font-family="arial" font-size="14.00">3&#45;pin</text>
<polygon fill="none" stroke="black" points="818,-246.25 818,-270 886.25,-270 886.25,-246.25 818,-246.25"/>
<text xml:space="preserve" text-anchor="start" x="848.38" y="-253.25" font-family="arial" font-size="14.00">1</text>
<polygon fill="none" stroke="black" points="886.25,-246.25 886.25,-270 1067.75,-270 1067.75,-246.25 886.25,-246.25"/>
<text xml:space="preserve" text-anchor="start" x="943.62" y="-253.25" font-family="arial" font-size="14.00">cord brown</text>
<polygon fill="none" stroke="black" points="1067.75,-246.25 1067.75,-270 1136,-270 1136,-246.25 1067.75,-246.25"/>
<text xml:space="preserve" text-anchor="start" x="1098.12" y="-253.25" font-family="arial" font-size="14.00">1</text>
<polygon fill="none" stroke="black" points="818,-222.5 818,-246.25 886.25,-246.25 886.25,-222.5 818,-222.5"/>
<text xml:space="preserve" text-anchor="start" x="848.38" y="-229.5" font-family="arial" font-size="14.00">2</text>
<polygon fill="none" stroke="black" points="886.25,-222.5 886.25,-246.25 1067.75,-246.25 1067.75,-222.5 886.25,-222.5"/>
<text xml:space="preserve" text-anchor="start" x="930.88" y="-229.5" font-family="arial" font-size="14.00">machine brown</text>
<polygon fill="none" stroke="black" points="1067.75,-222.5 1067.75,-246.25 1136,-246.25 1136,-222.5 1067.75,-222.5"/>
<text xml:space="preserve" text-anchor="start" x="1098.12" y="-229.5" font-family="arial" font-size="14.00">2</text>
<polygon fill="none" stroke="black" points="818,-198.75 818,-222.5 886.25,-222.5 886.25,-198.75 818,-198.75"/>
<text xml:space="preserve" text-anchor="start" x="848.38" y="-205.75" font-family="arial" font-size="14.00">3</text>
<polygon fill="none" stroke="black" points="886.25,-198.75 886.25,-222.5 1067.75,-222.5 1067.75,-198.75 886.25,-198.75"/>
<text xml:space="preserve" text-anchor="start" x="916.62" y="-205.75" font-family="arial" font-size="14.00">NEW brown to relay</text>
<polygon fill="none" stroke="black" points="1067.75,-198.75 1067.75,-222.5 1136,-222.5 1136,-198.75 1067.75,-198.75"/>
<text xml:space="preserve" text-anchor="start" x="1098.12" y="-205.75" font-family="arial" font-size="14.00">3</text>
</g>
<!-- machine -->
<g id="node7" class="node">
<title>machine</title>
<polygon fill="#ffffff" stroke="black" points="1641.38,-348.25 1284.38,-348.25 1284.38,-186 1641.38,-186 1641.38,-348.25"/>
<polygon fill="none" stroke="black" points="1284.38,-324.5 1284.38,-348.25 1641.38,-348.25 1641.38,-324.5 1284.38,-324.5"/>
<text xml:space="preserve" text-anchor="start" x="1437" y="-331.5" font-family="arial" font-size="14.00">machine</text>
<polygon fill="none" stroke="black" points="1284.38,-300.75 1284.38,-324.5 1641.38,-324.5 1641.38,-300.75 1284.38,-300.75"/>
<text xml:space="preserve" text-anchor="start" x="1455.75" y="-307.75" font-family="arial" font-size="14.00">2x</text>
<text xml:space="preserve" text-anchor="start" x="1367.75" y="-286" font-family="arial" font-size="14.00"> </text>
<text xml:space="preserve" text-anchor="start" x="1286.38" y="-266.25" font-family="arial" font-size="14.00">WAGO_L:2:machine brown</text>
<text xml:space="preserve" text-anchor="start" x="1456.88" y="-266.25" font-family="arial" font-size="14.00"> &#160;&#160;&#160;&#160;1:BN &#160;&#160;&#160;</text>
<text xml:space="preserve" text-anchor="start" x="1524.62" y="-266.25" font-family="arial" font-size="14.00">MACHINE:1:brown</text>
<polygon fill="#000000" stroke="none" points="1284.38,-259.25 1284.38,-261.25 1641.38,-261.25 1641.38,-259.25 1284.38,-259.25"/>
<polygon fill="#895956" stroke="none" points="1284.38,-257.25 1284.38,-259.25 1641.38,-259.25 1641.38,-257.25 1284.38,-257.25"/>
<polygon fill="#000000" stroke="none" points="1284.38,-255.25 1284.38,-257.25 1641.38,-257.25 1641.38,-255.25 1284.38,-255.25"/>
<text xml:space="preserve" text-anchor="start" x="1290.88" y="-240.5" font-family="arial" font-size="14.00">WAGO_N:2:machine blue</text>
<text xml:space="preserve" text-anchor="start" x="1456.88" y="-240.5" font-family="arial" font-size="14.00"> &#160;&#160;&#160;&#160;2:BU &#160;&#160;&#160;</text>
<text xml:space="preserve" text-anchor="start" x="1530.25" y="-240.5" font-family="arial" font-size="14.00">MACHINE:2:blue</text>
<polygon fill="#000000" stroke="none" points="1284.38,-233.5 1284.38,-235.5 1641.38,-235.5 1641.38,-233.5 1284.38,-233.5"/>
<polygon fill="#0066ff" stroke="none" points="1284.38,-231.5 1284.38,-233.5 1641.38,-233.5 1641.38,-231.5 1284.38,-231.5"/>
<polygon fill="#000000" stroke="none" points="1284.38,-229.5 1284.38,-231.5 1641.38,-231.5 1641.38,-229.5 1284.38,-229.5"/>
<text xml:space="preserve" text-anchor="start" x="1367.75" y="-214.75" font-family="arial" font-size="14.00"> </text>
<polygon fill="none" stroke="black" points="1284.38,-186 1284.38,-209.75 1641.38,-209.75 1641.38,-186 1284.38,-186"/>
<text xml:space="preserve" text-anchor="start" x="1357.12" y="-193" font-family="arial" font-size="14.00">existing, bullets cut off, strip 11 mm</text>
</g>
<!-- WAGO_L&#45;&#45;machine -->
<g id="edge5" class="edge">
<title>WAGO_L:e&#45;&#45;machine:w</title>
<path fill="none" stroke="#000000" stroke-width="2" d="M1136,-232.38C1204.06,-233.33 1218.73,-257.2 1283.38,-256.25"/>
<path fill="none" stroke="#895956" stroke-width="2" d="M1136,-234.38C1202.35,-234.38 1217.02,-258.25 1283.38,-258.25"/>
<path fill="none" stroke="#000000" stroke-width="2" d="M1136,-236.37C1200.65,-235.42 1215.32,-259.3 1283.38,-260.25"/>
</g>
<!-- new -->
<g id="node8" class="node">
<title>new</title>
<polygon fill="#ffffff" stroke="black" points="1645.75,-162.25 1280,-162.25 1280,0 1645.75,0 1645.75,-162.25"/>
<polygon fill="none" stroke="black" points="1280,-138.5 1280,-162.25 1645.75,-162.25 1645.75,-138.5 1280,-138.5"/>
<text xml:space="preserve" text-anchor="start" x="1450.5" y="-145.5" font-family="arial" font-size="14.00">new</text>
<polygon fill="none" stroke="black" points="1280,-114.75 1280,-138.5 1440.75,-138.5 1440.75,-114.75 1280,-114.75"/>
<text xml:space="preserve" text-anchor="start" x="1353.25" y="-121.75" font-family="arial" font-size="14.00">2x</text>
<polygon fill="none" stroke="black" points="1440.75,-114.75 1440.75,-138.5 1645.75,-138.5 1645.75,-114.75 1440.75,-114.75"/>
<text xml:space="preserve" text-anchor="start" x="1514" y="-121.75" font-family="arial" font-size="14.00">0.75 mm²</text>
<text xml:space="preserve" text-anchor="start" x="1382.21" y="-100" font-family="arial" font-size="14.00"> </text>
<text xml:space="preserve" text-anchor="start" x="1286.58" y="-80.25" font-family="arial" font-size="14.00">WAGO_L:3:NEW brown to relay</text>
<text xml:space="preserve" text-anchor="start" x="1494.75" y="-80.25" font-family="arial" font-size="14.00"> &#160;&#160;&#160;&#160;1:BN &#160;&#160;&#160;</text>
<text xml:space="preserve" text-anchor="start" x="1572.79" y="-80.25" font-family="arial" font-size="14.00">RELAY:1:L</text>
<polygon fill="#000000" stroke="none" points="1280,-73.25 1280,-75.25 1645.75,-75.25 1645.75,-73.25 1280,-73.25"/>
<polygon fill="#895956" stroke="none" points="1280,-71.25 1280,-73.25 1645.75,-73.25 1645.75,-71.25 1280,-71.25"/>
<polygon fill="#000000" stroke="none" points="1280,-69.25 1280,-71.25 1645.75,-71.25 1645.75,-69.25 1280,-69.25"/>
<text xml:space="preserve" text-anchor="start" x="1291.08" y="-54.5" font-family="arial" font-size="14.00">WAGO_N:3:NEW blue to relay</text>
<text xml:space="preserve" text-anchor="start" x="1494.75" y="-54.5" font-family="arial" font-size="14.00"> &#160;&#160;&#160;&#160;2:BU &#160;&#160;&#160;</text>
<text xml:space="preserve" text-anchor="start" x="1571.67" y="-54.5" font-family="arial" font-size="14.00">RELAY:2:N</text>
<polygon fill="#000000" stroke="none" points="1280,-47.5 1280,-49.5 1645.75,-49.5 1645.75,-47.5 1280,-47.5"/>
<polygon fill="#0066ff" stroke="none" points="1280,-45.5 1280,-47.5 1645.75,-47.5 1645.75,-45.5 1280,-45.5"/>
<polygon fill="#000000" stroke="none" points="1280,-43.5 1280,-45.5 1645.75,-45.5 1645.75,-43.5 1280,-43.5"/>
<text xml:space="preserve" text-anchor="start" x="1382.21" y="-28.75" font-family="arial" font-size="14.00"> </text>
<polygon fill="none" stroke="black" points="1280,0 1280,-23.75 1645.75,-23.75 1645.75,0 1280,0"/>
<text xml:space="preserve" text-anchor="start" x="1284" y="-7" font-family="arial" font-size="14.00">NEW leads, route up the gap beside the loom, cable&#45;tie to it</text>
</g>
<!-- WAGO_L&#45;&#45;new -->
<g id="edge9" class="edge">
<title>WAGO_L:e&#45;&#45;new:w</title>
<path fill="none" stroke="#000000" stroke-width="2" d="M1136,-208.63C1222.82,-211.1 1189.3,-72.72 1280,-70.25"/>
<path fill="none" stroke="#895956" stroke-width="2" d="M1136,-210.63C1224.76,-210.62 1191.24,-72.25 1280,-72.25"/>
<path fill="none" stroke="#000000" stroke-width="2" d="M1136,-212.62C1226.7,-210.15 1193.18,-71.78 1280,-74.25"/>
</g>
<!-- WAGO_N -->
<g id="node3" class="node">
<title>WAGO_N</title>
<polygon fill="#ffffff" stroke="black" points="1127,-174.5 827,-174.5 827,-55.75 1127,-55.75 1127,-174.5"/>
<polygon fill="none" stroke="black" points="827,-150.75 827,-174.5 1127,-174.5 1127,-150.75 827,-150.75"/>
<text xml:space="preserve" text-anchor="start" x="946.25" y="-157.75" font-family="arial" font-size="14.00">WAGO_N</text>
<polygon fill="none" stroke="black" points="827,-127 827,-150.75 932.5,-150.75 932.5,-127 827,-127"/>
<text xml:space="preserve" text-anchor="start" x="831" y="-134" font-family="arial" font-size="14.00">WAGO 221&#45;413</text>
<polygon fill="none" stroke="black" points="932.5,-127 932.5,-150.75 1089,-150.75 1089,-127 932.5,-127"/>
<text xml:space="preserve" text-anchor="start" x="936.5" y="-134" font-family="arial" font-size="14.00">replaces the BLUE bullet</text>
<polygon fill="none" stroke="black" points="1089,-127 1089,-150.75 1127,-150.75 1127,-127 1089,-127"/>
<text xml:space="preserve" text-anchor="start" x="1093" y="-134" font-family="arial" font-size="14.00">3&#45;pin</text>
<polygon fill="none" stroke="black" points="827,-103.25 827,-127 893,-127 893,-103.25 827,-103.25"/>
<text xml:space="preserve" text-anchor="start" x="856.25" y="-110.25" font-family="arial" font-size="14.00">1</text>
<polygon fill="none" stroke="black" points="893,-103.25 893,-127 1061,-127 1061,-103.25 893,-103.25"/>
<text xml:space="preserve" text-anchor="start" x="949.25" y="-110.25" font-family="arial" font-size="14.00">cord blue</text>
<polygon fill="none" stroke="black" points="1061,-103.25 1061,-127 1127,-127 1127,-103.25 1061,-103.25"/>
<text xml:space="preserve" text-anchor="start" x="1090.25" y="-110.25" font-family="arial" font-size="14.00">1</text>
<polygon fill="none" stroke="black" points="827,-79.5 827,-103.25 893,-103.25 893,-79.5 827,-79.5"/>
<text xml:space="preserve" text-anchor="start" x="856.25" y="-86.5" font-family="arial" font-size="14.00">2</text>
<polygon fill="none" stroke="black" points="893,-79.5 893,-103.25 1061,-103.25 1061,-79.5 893,-79.5"/>
<text xml:space="preserve" text-anchor="start" x="936.5" y="-86.5" font-family="arial" font-size="14.00">machine blue</text>
<polygon fill="none" stroke="black" points="1061,-79.5 1061,-103.25 1127,-103.25 1127,-79.5 1061,-79.5"/>
<text xml:space="preserve" text-anchor="start" x="1090.25" y="-86.5" font-family="arial" font-size="14.00">2</text>
<polygon fill="none" stroke="black" points="827,-55.75 827,-79.5 893,-79.5 893,-55.75 827,-55.75"/>
<text xml:space="preserve" text-anchor="start" x="856.25" y="-62.75" font-family="arial" font-size="14.00">3</text>
<polygon fill="none" stroke="black" points="893,-55.75 893,-79.5 1061,-79.5 1061,-55.75 893,-55.75"/>
<text xml:space="preserve" text-anchor="start" x="922.25" y="-62.75" font-family="arial" font-size="14.00">NEW blue to relay</text>
<polygon fill="none" stroke="black" points="1061,-55.75 1061,-79.5 1127,-79.5 1127,-55.75 1061,-55.75"/>
<text xml:space="preserve" text-anchor="start" x="1090.25" y="-62.75" font-family="arial" font-size="14.00">3</text>
</g>
<!-- WAGO_N&#45;&#45;machine -->
<g id="edge7" class="edge">
<title>WAGO_N:e&#45;&#45;machine:w</title>
<path fill="none" stroke="#000000" stroke-width="2" d="M1128,-89.38C1223.24,-91.81 1192.04,-232.93 1283.38,-230.5"/>
<path fill="none" stroke="#0066ff" stroke-width="2" d="M1128,-91.38C1221.29,-91.38 1190.09,-232.5 1283.38,-232.5"/>
<path fill="none" stroke="#000000" stroke-width="2" d="M1128,-93.37C1219.34,-90.94 1188.13,-232.07 1283.38,-234.5"/>
</g>
<!-- WAGO_N&#45;&#45;new -->
<g id="edge11" class="edge">
<title>WAGO_N:e&#45;&#45;new:w</title>
<path fill="none" stroke="#000000" stroke-width="2" d="M1128,-65.63C1194.6,-66.44 1210.19,-45.31 1280,-44.5"/>
<path fill="none" stroke="#0066ff" stroke-width="2" d="M1128,-67.62C1196.2,-67.63 1211.8,-46.5 1280,-46.5"/>
<path fill="none" stroke="#000000" stroke-width="2" d="M1128,-69.62C1197.81,-68.81 1213.4,-47.69 1280,-48.5"/>
</g>
<!-- MACHINE -->
<g id="node4" class="node">
<title>MACHINE</title>
<polygon fill="#ffffff" stroke="black" points="2204.5,-316.62 1789.75,-316.62 1789.75,-221.62 2204.5,-221.62 2204.5,-316.62"/>
<polygon fill="none" stroke="black" points="1789.75,-292.88 1789.75,-316.62 2204.5,-316.62 2204.5,-292.88 1789.75,-292.88"/>
<text xml:space="preserve" text-anchor="start" x="1965.62" y="-299.88" font-family="arial" font-size="14.00">MACHINE</text>
<polygon fill="none" stroke="black" points="1789.75,-269.12 1789.75,-292.88 1936.5,-292.88 1936.5,-269.12 1789.75,-269.12"/>
<text xml:space="preserve" text-anchor="start" x="1793.75" y="-276.12" font-family="arial" font-size="14.00">Machine internal wiring</text>
<polygon fill="none" stroke="black" points="1936.5,-269.12 1936.5,-292.88 2166.5,-292.88 2166.5,-269.12 1936.5,-269.12"/>
<text xml:space="preserve" text-anchor="start" x="1940.5" y="-276.12" font-family="arial" font-size="14.00">the wires the bullets used to plug into</text>
<polygon fill="none" stroke="black" points="2166.5,-269.12 2166.5,-292.88 2204.5,-292.88 2204.5,-269.12 2166.5,-269.12"/>
<text xml:space="preserve" text-anchor="start" x="2170.5" y="-276.12" font-family="arial" font-size="14.00">2&#45;pin</text>
<polygon fill="none" stroke="black" points="1789.75,-245.38 1789.75,-269.12 1982.5,-269.12 1982.5,-245.38 1789.75,-245.38"/>
<text xml:space="preserve" text-anchor="start" x="1882.38" y="-252.38" font-family="arial" font-size="14.00">1</text>
<polygon fill="none" stroke="black" points="1982.5,-245.38 1982.5,-269.12 2204.5,-269.12 2204.5,-245.38 1982.5,-245.38"/>
<text xml:space="preserve" text-anchor="start" x="2075.12" y="-252.38" font-family="arial" font-size="14.00">brown</text>
<polygon fill="none" stroke="black" points="1789.75,-221.62 1789.75,-245.38 1982.5,-245.38 1982.5,-221.62 1789.75,-221.62"/>
<text xml:space="preserve" text-anchor="start" x="1882.38" y="-228.62" font-family="arial" font-size="14.00">2</text>
<polygon fill="none" stroke="black" points="1982.5,-221.62 1982.5,-245.38 2204.5,-245.38 2204.5,-221.62 1982.5,-221.62"/>
<text xml:space="preserve" text-anchor="start" x="2080.75" y="-228.62" font-family="arial" font-size="14.00">blue</text>
</g>
<!-- RELAY -->
<g id="node5" class="node">
<title>RELAY</title>
<polygon fill="#ffffff" stroke="black" points="2193.62,-131.5 1800.62,-131.5 1800.62,-12.75 2193.62,-12.75 2193.62,-131.5"/>
<polygon fill="none" stroke="black" points="1800.62,-107.75 1800.62,-131.5 2193.62,-131.5 2193.62,-107.75 1800.62,-107.75"/>
<text xml:space="preserve" text-anchor="start" x="1975.38" y="-114.75" font-family="arial" font-size="14.00">RELAY</text>
<polygon fill="none" stroke="black" points="1800.62,-84 1800.62,-107.75 1912.12,-107.75 1912.12,-84 1800.62,-84"/>
<text xml:space="preserve" text-anchor="start" x="1804.62" y="-91" font-family="arial" font-size="14.00">Sonoff MINI&#45;ZBD</text>
<polygon fill="none" stroke="black" points="1912.12,-84 1912.12,-107.75 2155.62,-107.75 2155.62,-84 1912.12,-84"/>
<text xml:space="preserve" text-anchor="start" x="1916.12" y="-91" font-family="arial" font-size="14.00">right&#45;hand terminal column, bottom two</text>
<polygon fill="none" stroke="black" points="2155.62,-84 2155.62,-107.75 2193.62,-107.75 2193.62,-84 2155.62,-84"/>
<text xml:space="preserve" text-anchor="start" x="2159.62" y="-91" font-family="arial" font-size="14.00">2&#45;pin</text>
<polygon fill="none" stroke="black" points="1800.62,-60.25 1800.62,-84 1996,-84 1996,-60.25 1800.62,-60.25"/>
<text xml:space="preserve" text-anchor="start" x="1894.56" y="-67.25" font-family="arial" font-size="14.00">1</text>
<polygon fill="none" stroke="black" points="1996,-60.25 1996,-84 2193.62,-84 2193.62,-60.25 1996,-60.25"/>
<text xml:space="preserve" text-anchor="start" x="2091.06" y="-67.25" font-family="arial" font-size="14.00">L</text>
<polygon fill="none" stroke="black" points="1800.62,-36.5 1800.62,-60.25 1996,-60.25 1996,-36.5 1800.62,-36.5"/>
<text xml:space="preserve" text-anchor="start" x="1894.56" y="-43.5" font-family="arial" font-size="14.00">2</text>
<polygon fill="none" stroke="black" points="1996,-36.5 1996,-60.25 2193.62,-60.25 2193.62,-36.5 1996,-36.5"/>
<text xml:space="preserve" text-anchor="start" x="2089.94" y="-43.5" font-family="arial" font-size="14.00">N</text>
<polygon fill="none" stroke="black" points="1800.62,-12.75 1800.62,-36.5 2193.62,-36.5 2193.62,-12.75 1800.62,-12.75"/>
<text xml:space="preserve" text-anchor="start" x="1815.25" y="-19.75" font-family="arial" font-size="14.00">leave COM, NO, NC, S1, S2, DC+, DC&#45; EMPTY for this step</text>
</g>
<!-- cord&#45;&#45;WAGO_L -->
<g id="edge2" class="edge">
<title>cord:e&#45;&#45;WAGO_L:w</title>
<path fill="none" stroke="#000000" stroke-width="2" d="M674,-196.25C745.3,-198.07 750.68,-257.95 818,-256.13"/>
<path fill="none" stroke="#895956" stroke-width="2" d="M674,-198.25C743.31,-198.25 748.69,-258.13 818,-258.12"/>
<path fill="none" stroke="#000000" stroke-width="2" d="M674,-200.25C741.32,-198.43 746.7,-258.3 818,-260.12"/>
</g>
<!-- cord&#45;&#45;WAGO_N -->
<g id="edge4" class="edge">
<title>cord:e&#45;&#45;WAGO_N:w</title>
<path fill="none" stroke="#000000" stroke-width="2" d="M674,-170.5C744.23,-172.24 751.81,-114.86 826,-113.13"/>
<path fill="none" stroke="#0066ff" stroke-width="2" d="M674,-172.5C746.21,-172.5 753.79,-115.12 826,-115.12"/>
<path fill="none" stroke="#000000" stroke-width="2" d="M674,-174.5C748.19,-172.76 755.77,-115.39 826,-117.12"/>
</g>
<!-- machine&#45;&#45;MACHINE -->
<g id="edge6" class="edge">
<title>machine:e&#45;&#45;MACHINE:w</title>
<path fill="none" stroke="#000000" stroke-width="2" d="M1642.38,-256.25C1707.75,-256.25 1724.13,-255.25 1789.75,-255.25"/>
<path fill="none" stroke="#895956" stroke-width="2" d="M1642.38,-258.25C1707.88,-258.25 1724.25,-257.25 1789.75,-257.25"/>
<path fill="none" stroke="#000000" stroke-width="2" d="M1642.38,-260.25C1708,-260.25 1724.37,-259.25 1789.75,-259.25"/>
</g>
<!-- machine&#45;&#45;MACHINE -->
<g id="edge8" class="edge">
<title>machine:e&#45;&#45;MACHINE:w</title>
<path fill="none" stroke="#000000" stroke-width="2" d="M1642.38,-230.5C1708,-230.5 1724.37,-231.5 1789.75,-231.5"/>
<path fill="none" stroke="#0066ff" stroke-width="2" d="M1642.38,-232.5C1707.88,-232.5 1724.25,-233.5 1789.75,-233.5"/>
<path fill="none" stroke="#000000" stroke-width="2" d="M1642.38,-234.5C1707.75,-234.5 1724.13,-235.5 1789.75,-235.5"/>
</g>
<!-- new&#45;&#45;RELAY -->
<g id="edge10" class="edge">
<title>new:e&#45;&#45;RELAY:w</title>
<path fill="none" stroke="#000000" stroke-width="2" d="M1645.75,-70.25C1714.12,-70.25 1731.22,-70.13 1799.62,-70.13"/>
<path fill="none" stroke="#895956" stroke-width="2" d="M1645.75,-72.25C1714.14,-72.25 1731.24,-72.12 1799.62,-72.12"/>
<path fill="none" stroke="#000000" stroke-width="2" d="M1645.75,-74.25C1714.15,-74.25 1731.25,-74.12 1799.62,-74.12"/>
</g>
<!-- new&#45;&#45;RELAY -->
<g id="edge12" class="edge">
<title>new:e&#45;&#45;RELAY:w</title>
<path fill="none" stroke="#000000" stroke-width="2" d="M1645.75,-44.5C1714.36,-44.51 1731.45,-46.39 1799.62,-46.38"/>
<path fill="none" stroke="#0066ff" stroke-width="2" d="M1645.75,-46.5C1714.14,-46.5 1731.23,-48.38 1799.62,-48.37"/>
<path fill="none" stroke="#000000" stroke-width="2" d="M1645.75,-48.5C1713.93,-48.49 1731.01,-50.36 1799.62,-50.37"/>
</g>
</g>
</svg>
